<svg width="98" height="98" viewBox="0 0 98 98" fill="none" xmlns="http://www.w3.org/2000/svg">
<circle cx="49" cy="49" r="49" fill="#00064E"/>
<path d="M52.1335 30V35.297M52.1335 61.782V67.079M52.1335 45.891V51.188M23 40.594C25.1073 40.594 27.1282 41.4311 28.6183 42.9212C30.1084 44.4113 30.9455 46.4322 30.9455 48.5395C30.9455 50.6468 30.1084 52.6677 28.6183 54.1578C27.1282 55.6479 25.1073 56.485 23 56.485V61.782C23 63.1869 23.5581 64.5342 24.5515 65.5275C25.5448 66.5209 26.8921 67.079 28.297 67.079H70.673C72.0779 67.079 73.4252 66.5209 74.4185 65.5275C75.4119 64.5342 75.97 63.1869 75.97 61.782V56.485C73.8627 56.485 71.8418 55.6479 70.3517 54.1578C68.8616 52.6677 68.0245 50.6468 68.0245 48.5395C68.0245 46.4322 68.8616 44.4113 70.3517 42.9212C71.8418 41.4311 73.8627 40.594 75.97 40.594V35.297C75.97 33.8921 75.4119 32.5448 74.4185 31.5515C73.4252 30.5581 72.0779 30 70.673 30H28.297C26.8921 30 25.5448 30.5581 24.5515 31.5515C23.5581 32.5448 23 33.8921 23 35.297V40.594Z" stroke="white" stroke-width="2" stroke-linecap="round" stroke-linejoin="round"/>
</svg>
